<?xml version="1.0" encoding="utf-8"?><svg version="1.1" xmlns="http://www.w3.org/2000/svg" viewBox="0 0 100 100" xml:space="preserve"><path d="M0,97.79v-75L20.78,2H79.22L100,22.78v75ZM3.49,94.3h93V26.49H62.16V41.28l-3.82,1.94-4.21-2.11-4.21,2.11-4.21-2.11L41.5,43.22l-3.83-1.94V26.49H3.49ZM58.73,39.51v-13H41.22v13l4.54-2.27L50,39.34l4.21-2.1ZM61.55,23H95.24L77.73,5.49H58.61ZM41.94,23H58.06L55.12,5.49H44.82ZM4.71,23H38.39L41.33,5.49H22.22Z" style="fill:#231f20"/><path d="M10.14,81a1.72,1.72,0,1,1,0-3.43H31.08a1.72,1.72,0,1,1,0,3.43Z" style="fill:#231f20"/><path d="M10.14,89.37a1.72,1.72,0,0,1,0-3.44H20.61a1.72,1.72,0,0,1,0,3.44Z" style="fill:#231f20"/></svg>