<?xml version="1.0" encoding="utf-8"?>
<!-- Generator: Adobe Illustrator 23.0.3, SVG Export Plug-In . SVG Version: 6.00 Build 0)  -->
<svg version="1.1" id="Layer_1" xmlns="http://www.w3.org/2000/svg" xmlns:xlink="http://www.w3.org/1999/xlink" x="0px" y="0px"
	 viewBox="0 0 100 100" style="enable-background:new 0 0 100 100;" xml:space="preserve">
<style type="text/css">
	.st0{display:none;}
	.st1{display:inline;}
	.st2{fill:#808080;}
	.st3{fill:#231F20;}
</style>
<g class="st0">
	<g class="st1">
		<path class="st2" d="M32.8,25.2h36.6c3.4,0,6.1-2.6,6.1-6.1v-62.7c0-3.4-2.6-6.1-6.1-6.1H32.8c-3.4,0-6.1,2.6-6.1,6.1v62.7
			C26.5,22.4,29.4,25.2,32.8,25.2z M33.3-43h35.3v61.4H33.3V-43z"/>
		<path class="st2" d="M150.9,6.9H83.4v6.9h67.5c6.6,0,11.9,5.3,11.9,11.9v99.4c0,6.6-5.3,11.9-11.9,11.9H-48.9
			c-6.6,0-11.9-5.3-11.9-11.9V25.7c0-6.6,5.3-11.9,11.9-11.9h67.5V6.9h-67.5c-10.3,0-18.7,8.4-18.7,18.7v99.4
			c0,10.3,8.4,18.7,18.7,18.7h199.8c10.3,0,18.7-8.4,18.7-18.7V25.6C169.6,15,161.2,6.9,150.9,6.9z"/>
		<rect x="52.1" y="83.2" class="st2" width="43.2" height="6.9"/>
		<rect x="52.1" y="106.4" class="st2" width="86.5" height="6.9"/>
		<rect x="52.1" y="37.2" class="st2" width="86.5" height="6.9"/>
		<rect x="52.1" y="60.1" class="st2" width="43.2" height="6.9"/>
		<path class="st2" d="M-38.9,99.9c-1.6,4.5-1.3,8.7,0.5,11.3c1.3,1.8,3.2,2.9,5.3,2.9H9.6c2.1,0,4-1.1,5.3-2.9
			c1.8-2.6,2.1-7.1,0.5-11.3L6.2,74.6l-6.3,2.4l9.2,25.6c1.1,2.6,0.8,4.5,0.5,5h-42.4c-0.3-0.8-0.5-2.6,0.3-5.3l9.2-25.6l-6.3-2.4
			L-38.9,99.9z"/>
		<path class="st2" d="M4.9,52.7c0-9.2-7.4-16.6-16.6-16.6s-16.6,7.4-16.6,16.6c0,9.2,7.4,16.6,16.6,16.6S4.9,61.9,4.9,52.7z
			 M-21.5,52.7c0-5.5,4.5-9.8,9.8-9.8s9.8,4.5,9.8,9.8c0,5.5-4.5,9.8-9.8,9.8C-17,62.4-21.5,58.2-21.5,52.7z"/>
	</g>
</g>
<g class="st0">
	<g class="st1">
		<path class="st2" d="M13.3-75.3c-0.7,0-1.3,0.3-1.8,0.8s-0.8,1.1-0.8,1.8v8.9H1.8c-0.7,0-1.3,0.3-1.8,0.8s-0.8,1.1-0.8,1.8v10
			h-10.9c-1.4,0-2.6,1.2-2.6,2.6v215.3c0,1.4,1.2,2.6,2.6,2.6H88.5c1.4,0,2.6-1.2,2.6-2.6v-10.2h11.1c0.7,0,1.3-0.3,1.8-0.8
			s0.8-1.1,0.8-1.8v-8.8h8.9c0.7,0,1.4-0.3,1.8-0.8c0.5-0.5,0.8-1.1,0.8-1.8V-72.8c0-0.7-0.3-1.4-0.8-1.8c-0.5-0.5-1.1-0.8-1.8-0.8
			C113.7-75.3,13.3-75.3,13.3-75.3z M-9.1,164.2V-45.9h95v210.1H-9.1z M91.1,151.4V-48.5c0-1.4-1.2-2.6-2.6-2.6H4.4v-7.4h95.2v209.9
			L91.1,151.4z M111.1-70.1v209.9h-6.3v-201c0-1.4-1.2-2.6-2.6-2.6H15.9v-6.3H111.1z"/>
		<path class="st2" d="M9-38.6c-0.5,0.5-0.7,1.3-0.7,2c0,0.2,0,0.4,0,0.6c0,1.9-0.7,3.7-2.1,5.1S3-28.8,1.1-28.8
			c-0.7,0-1.4,0.3-1.8,0.8c-0.5,0.5-0.8,1.1-0.8,1.8v171.6c0,1.4,1.2,2.6,2.6,2.6c1.9,0,3.7,0.7,5.1,2.1c1.4,1.4,2.1,3.2,2.1,5.1
			c0,0.7,0.3,1.3,0.8,1.8s1.1,0.8,1.8,0.8h53.4c0.7,0,1.4-0.3,1.8-0.8c0.5-0.5,0.8-1.1,0.8-1.8c0-1.9,0.7-3.7,2.1-5.1
			c1.4-1.4,3.2-2.1,5.1-2.1c0.4,0,0.7,0,1,0.1c0.7,0.1,1.5-0.1,2.1-0.6c0.1,0,0.1-0.1,0.1-0.1c0.5-0.5,0.8-1.1,0.8-1.8V-26.3
			c0-0.8-0.3-1.5-0.9-2c-0.6-0.5-1.3-0.7-2.1-0.6c-0.3,0.1-0.7,0.1-1,0.1c-4,0-7.2-3.2-7.2-7.2c0-0.2,0-0.4,0-0.6
			c0.1-0.7-0.2-1.5-0.7-2s-1.2-0.9-1.9-0.9H10.9C10.2-39.5,9.5-39.2,9-38.6L9-38.6z M73-23.8v166.5c-2.9,0.3-5.5,1.5-7.6,3.6
			c-1.7,1.7-2.9,3.9-3.4,6.2H13.3c-0.5-2.3-1.6-4.5-3.4-6.2c-1.7-1.7-3.8-2.9-6.2-3.4V-23.9c2.3-0.5,4.5-1.6,6.2-3.4
			c1.9-1.9,3.2-4.4,3.5-7.1h48.5C62.7-28.6,67.3-24.2,73-23.8L73-23.8z"/>
		<path class="st2" d="M11.9,59.1c0,5.6,2.9,10.7,8.1,14.5c5,3.6,11.5,5.7,18.5,5.7c8.4,0,16.1-2.9,21.1-7.9
			c3.5-3.5,5.4-7.8,5.4-12.2C65,48.1,53.1,39,38.5,39c-8.4,0-16.1,2.9-21.1,7.9C13.7,50.4,11.9,54.7,11.9,59.1L11.9,59.1z
			 M59.7,59.1c0,3.1-1.3,6-3.9,8.6c-4,4-10.5,6.4-17.5,6.4c-5.8,0-11.3-1.7-15.4-4.6c-3.8-2.8-5.9-6.5-5.9-10.3c0-3.1,1.3-6,3.9-8.6
			c4-4,10.5-6.4,17.5-6.4C50.2,44.2,59.7,50.9,59.7,59.1L59.7,59.1z"/>
	</g>
</g>
<g id="Layer_3" class="st0">
	<g class="st1">
		<path class="st2" d="M68.2,135.8c-14.8,0-27.7-9.5-32-23.7l-0.2-0.7H14.3l-0.2,0.7c-4.3,14.2-17.2,23.7-32,23.7s-27.7-9.5-32-23.7
			l-0.2-0.7h-15.3c-2.7,0-5.4-1.1-7.3-3s-3-4.6-3-7.3l2.5-97.9C-73-2.7-68.3-7.2-62.6-7.2h17.2c4.5,0,10.7,1,15,2.4l21.5,6.9l6.4-34
			c0.6-3.4,2.6-5.6,4.2-6.9c1.5-1.3,4.1-2.8,7.6-2.8h76.1c1.8,0,3.3,1.5,3.3,3.3c0,1.8-1.5,3.3-3.3,3.3H72.1l0.6,1.4
			c0.2,0.6,0.4,0.9,0.5,1.3L92,34.4l16.2,5.2c2.4,0.8,4.7,2.3,6.8,4.4c2.1,2.2,3.5,4.5,4.3,6.9l4.5,15c0.9,3.2,1.7,7.7,2.1,11.7
			l0.1,0.9h1c1.2,0,2.5,0.3,3.7,0.8l38.6,17.1c2.3,1,4.3,2.6,5.9,4.8c1.7,2.3,2.6,4.6,2.6,6.9v8.6c0,0.8-0.2,1.6-0.4,2
			c-0.2,0.5-0.5,1-0.9,1.4c-0.6,0.7-1.3,1.2-2.3,1.8c-1.7,1-3.8,1.7-6.1,2.1l-37.5,6.3c-0.6,0.1-1.1,0.1-1.7,0.1
			c-2.5,0-4.9-1-6.6-2.7c-1.7-1.7-2.7-4.1-2.7-6.7v-10.5l-1.3,0.3c-1,0.3-1.8,0.4-2.6,0.4h-15.2l-0.2,0.7
			C95.9,125.9,82.8,135.8,68.2,135.8z M68.2,75.4c-14.8,0-26.9,12.1-26.9,26.9s12.1,26.9,26.9,26.9c14.8,0,26.9-12.1,26.9-26.9
			S83,75.4,68.2,75.4z M-18,75.4c-14.8,0-26.9,12.1-26.9,26.9s12.1,26.9,26.9,26.9s26.9-12.1,26.9-26.9S-3.2,75.4-18,75.4z
			 M126.1,85.9c-0.1,0.2-0.1,0.5-0.1,0.7v34.5c0,0.9,0.2,1.5,0.7,2.1c0.5,0.5,1.1,0.7,1.9,0.8h0.5l37.6-6.3c1-0.2,1.9-0.4,2.7-0.7
			c0.4-0.2,0.8-0.3,1.1-0.5l0.5-0.3v-7.9c0.1-0.5-0.4-1.9-1.3-2.9c-0.9-1.2-2.1-2.2-3.4-2.7l-38.6-17.1c-0.3-0.1-0.5-0.2-0.6-0.2
			l-1-0.3L126.1,85.9z M-62.6-0.8c-2.1,0-4,1.9-4,4l-2.5,97.7c0,2.2,1.6,3.8,3.7,3.8h14.1l-0.1-1.7c0-0.3,0-0.5,0-0.8
			c0-18.4,15-33.4,33.4-33.4s33.4,15,33.4,33.4c0,0.3,0,0.5,0,0.8l-0.1,1.6h19.5l-0.1-1.7c0-0.2,0-0.5,0-0.7
			c0-18.4,15-33.4,33.4-33.4s33.4,15,33.4,33.4c0,0.3,0,0.5,0,0.7l-0.1,1.6h14.1c1,0,2-0.4,2.8-1.2s1.2-1.7,1.2-2.8v-20
			c0-3.5-0.9-9.8-1.9-13.1l-4.5-15c-0.3-1.2-1.4-2.9-2.7-4.2c-1.2-1.3-2.9-2.4-4.1-2.7L-32.3,1.4c-3.2-1-9.4-2-12.9-2h-17.4V-0.8z
			 M36,16.4L84.5,32L66.9-30.6c-0.3-1.1-1.2-2.3-2.3-3.2c-1.1-0.8-2.5-1.4-3.6-1.4H26.1L36,16.4z M9.2-35.1c-1.1,0-2.4,0.5-3.3,1.3
			c-1,0.8-1.7,2-1.9,3.1L-2.5,4.1l31.4,10l-9.4-49.3H9.2V-35.1z"/>
		<path class="st2" d="M68.2,115.7c-7.3,0-13.3-6-13.3-13.3s6-13.3,13.3-13.3s13.3,6,13.3,13.3S75.5,115.7,68.2,115.7z M68.2,95.6
			c-3.7,0-6.8,3-6.8,6.8s3,6.8,6.8,6.8c3.7,0,6.8-3,6.8-6.8S71.9,95.6,68.2,95.6z"/>
		<path class="st2" d="M-18,115.7c-7.3,0-13.3-6-13.3-13.3s6-13.3,13.3-13.3s13.3,6,13.3,13.3S-10.7,115.7-18,115.7z M-18,95.6
			c-3.7,0-6.8,3-6.8,6.8s3,6.8,6.8,6.8s6.8-3,6.8-6.8S-14.3,95.6-18,95.6z"/>
	</g>
</g>
<g id="Layer_4" class="st0">
	<g class="st1">
		<path class="st2" d="M-39.2,133.4V-1.9l37.5-37.5h105.5l37.5,37.5v135.4H-39.2z M-32.9,127.2h167.8V4.8H73v26.7l-6.9,3.5l-7.6-3.8
			l-7.6,3.8l-7.6-3.8l-7.6,3.8l-6.9-3.5V4.8h-61.7V127.2z M66.8,28.2V4.8H35.2v23.5l8.2-4.1l7.6,3.8l7.6-3.8L66.8,28.2z M71.9-1.5
			h60.8l-31.6-31.6H66.6L71.9-1.5z M36.5-1.5h29.1l-5.3-31.6H41.7L36.5-1.5z M-30.7-1.5h60.8l5.3-31.6H0.9L-30.7-1.5z"/>
		<path class="st2" d="M-20.9,103.2c-1.7,0-3.1-1.4-3.1-3.1c0-1.7,1.4-3.1,3.1-3.1h37.8c1.7,0,3.1,1.4,3.1,3.1
			c0,1.7-1.4,3.1-3.1,3.1H-20.9z"/>
		<path class="st2" d="M-20.9,118.2c-1.7,0-3.1-1.4-3.1-3.1c0-1.7,1.4-3.1,3.1-3.1H-2c1.7,0,3.1,1.4,3.1,3.1c0,1.7-1.4,3.1-3.1,3.1
			H-20.9z"/>
	</g>
</g>
<g id="Layer_5">
	<g>
		<path class="st3" d="M75.5,21.8L75.5,21.8H50.8h-0.1c-0.6,0-1.1,0.5-1.1,1.1s0.5,1.1,1.1,1.1h0.1h24.6h0.1c0.6,0,1.1-0.5,1.1-1.1
			S76,21.8,75.5,21.8z"/>
		<path class="st3" d="M75.5,31.7L75.5,31.7H50.8h-0.1c-0.6,0-1.1,0.5-1.1,1.1c0,0.6,0.5,1.1,1.1,1.1h0.1h24.6h0.1
			c0.6,0,1.1-0.5,1.1-1.1C76.6,32.1,76,31.7,75.5,31.7z"/>
		<path class="st3" d="M41.4,23c0-0.6-0.5-1.1-1.1-1.1h-0.1H28.6h-0.1c-0.6,0-1.1,0.5-1.1,1.1c0,0.1,0,0.1,0,0.2c0,0,0,0.1,0,0.2
			v0.1v11.7v0.1c0,0.6,0.5,1.1,1.1,1.1c0,0,0,0,0.1,0c0,0,0,0,0.1,0h0.1h11.3h0.1c0,0,0,0,0.1,0c0,0,0,0,0.1,0
			c0.6,0,1.1-0.5,1.1-1.1v-0.1V23.4v-0.1c0-0.1,0-0.1,0-0.2C41.4,23.1,41.4,23,41.4,23z M29.6,24.1h9.6v10h-9.6V24.1z"/>
		<path class="st3" d="M75.5,41.5L75.5,41.5H50.8h-0.1c-0.6,0-1.1,0.5-1.1,1.1s0.5,1.1,1.1,1.1h0.1h24.6h0.1c0.6,0,1.1-0.5,1.1-1.1
			C76.6,42,76,41.5,75.5,41.5z"/>
		<path class="st3" d="M75.5,51.3L75.5,51.3H50.8h-0.1c-0.6,0-1.1,0.5-1.1,1.1c0,0.6,0.5,1.1,1.1,1.1h0.1h24.6h0.1
			c0.6,0,1.1-0.5,1.1-1.1C76.6,51.8,76,51.3,75.5,51.3z"/>
		<path class="st3" d="M75.5,80.8L75.5,80.8H58.9h-0.1c-0.6,0-1.1,0.5-1.1,1.1c0,0.6,0.5,1.1,1.1,1.1h0.1h16.5h0.1
			c0.6,0,1.1-0.5,1.1-1.1C76.6,81.3,76,80.8,75.5,80.8z"/>
		<path class="st3" d="M75.5,61.1L75.5,61.1H50.8h-0.1c-0.6,0-1.1,0.5-1.1,1.1c0,0.6,0.5,1.1,1.1,1.1h0.1h24.6h0.1
			c0.6,0,1.1-0.5,1.1-1.1C76.6,61.6,76,61.1,75.5,61.1z"/>
		<path class="st3" d="M75.1,0.1h-9.4h-3.8h-35c-5.7,0-10.3,4.6-10.3,10.3v79.5c0,5.7,4.6,10.3,10.3,10.3h48.2
			c5.7,0,10.3-4.6,10.3-10.3V10.3C85.4,4.7,80.8,0.1,75.1,0.1z M83.1,20.1v14.6v2.2v2.8v50.1c0,4.4-3.6,8-8,8H26.9c-4.4,0-8-3.6-8-8
			V39.7v-2.8v-2.2V20.1v-9.7c0-4.4,3.6-8,8-8h35h3.8h9.4c4.4,0,8,3.6,8,8V20.1z"/>
		<path class="st3" d="M34.7,32.4c-0.3,0-0.6-0.1-0.8-0.4l-3-3c-0.4-0.4-0.4-1.3,0-1.7c0.2-0.2,0.5-0.4,0.8-0.4
			c0.3,0,0.6,0.1,0.8,0.4l2.1,2.1l8.9-8.9c0.2-0.2,0.5-0.4,0.8-0.4c0.3,0,0.6,0.1,0.8,0.4c0.2,0.2,0.4,0.5,0.4,0.8
			c0,0.3-0.1,0.6-0.4,0.8L35.6,32C35.4,32.2,35.1,32.4,34.7,32.4z"/>
		<path class="st3" d="M41.4,44.2c0-0.6-0.5-1.1-1.1-1.1h-0.1H28.6h-0.1c-0.6,0-1.1,0.5-1.1,1.1c0,0.1,0,0.1,0,0.2c0,0,0,0.1,0,0.2
			v0.1v11.7v0.1c0,0.6,0.5,1.1,1.1,1.1c0,0,0,0,0.1,0c0,0,0,0,0.1,0h0.1h11.3h0.1c0,0,0,0,0.1,0c0,0,0,0,0.1,0
			c0.6,0,1.1-0.5,1.1-1.1v-0.1V44.7v-0.1c0-0.1,0-0.1,0-0.2C41.4,44.3,41.4,44.3,41.4,44.2z M29.6,45.3h9.6v10h-9.6V45.3z"/>
		<path class="st3" d="M34.7,53.6c-0.3,0-0.6-0.1-0.8-0.4l-3-3c-0.4-0.4-0.4-1.2,0-1.7c0.2-0.2,0.5-0.4,0.8-0.4
			c0.3,0,0.6,0.1,0.8,0.4l2.1,2.1l8.9-8.9c0.2-0.2,0.5-0.4,0.8-0.4c0.3,0,0.6,0.1,0.8,0.4c0.2,0.2,0.4,0.5,0.4,0.8s-0.1,0.6-0.4,0.8
			l-9.8,9.8C35.4,53.5,35.1,53.6,34.7,53.6z"/>
		<path class="st3" d="M41.4,70.7c0-0.6-0.5-1.1-1.1-1.1h-0.1H28.6h-0.1c-0.6,0-1.1,0.5-1.1,1.1c0,0.1,0,0.1,0,0.2c0,0,0,0.1,0,0.2
			v0.1v11.7V83c0,0.6,0.5,1.1,1.1,1.1c0,0,0,0,0.1,0c0,0,0,0,0.1,0h0.1h11.3h0.1c0,0,0,0,0.1,0c0,0,0,0,0.1,0c0.6,0,1.1-0.5,1.1-1.1
			v-0.1V71.3v-0.1c0-0.1,0-0.1,0-0.2C41.4,70.9,41.4,70.8,41.4,70.7z M29.6,71.8h9.6v10h-9.6V71.8z"/>
		<path class="st3" d="M34.7,80.1c-0.3,0-0.6-0.1-0.8-0.4l-3-3c-0.4-0.4-0.4-1.2,0-1.7c0.2-0.2,0.5-0.4,0.8-0.4
			c0.3,0,0.6,0.1,0.8,0.4l2.1,2.1l8.9-8.9c0.2-0.2,0.5-0.4,0.8-0.4c0.3,0,0.6,0.1,0.8,0.4c0.2,0.2,0.4,0.5,0.4,0.8s-0.1,0.6-0.4,0.8
			l-9.8,9.8C35.4,80,35.1,80.1,34.7,80.1z"/>
	</g>
</g>
<g id="Layer_6" class="st0">
	<g class="st1">
		<path class="st2" d="M43.8,157.6c-1.2,0-2.2-1-2.2-2.2V57h-73.2c-0.6,0-1.2-0.2-1.6-0.7l-21.6-21.6c-0.9-0.9-0.9-2.3,0-3.2
			l21.6-21.6c0.4-0.4,1-0.7,1.6-0.7h73.2v-9.9h-73.2c-0.6,0-1.2-0.2-1.6-0.7l-21.6-21.4c-0.9-0.9-0.9-2.3,0-3.2l21.6-21.6
			c0.4-0.4,1-0.7,1.6-0.7h73.2v-4.9c0-1.2,1-2.2,2.2-2.2h14.4c1.2,0,2.2,1,2.2,2.2v33.7h73.2c0.6,0,1.2,0.2,1.6,0.7l21.6,21.6
			c0.4,0.4,0.7,1,0.7,1.6s-0.2,1.2-0.7,1.6l-21.6,21.6c-0.4,0.4-1,0.7-1.6,0.7H60.4v127.1c0,1.2-1,2.2-2.2,2.2H43.8V157.6z
			 M46.1,153.1H56V-50.8h-9.9V153.1z M-50,33.2l18.9,18.9l72.7,0.4V13.8h-72.3L-50,33.2z M60.4,23.7h71.7L152,4.4l-18.9-18.9
			l-72.7-0.4V23.7z M-50-24.3l18.9,18.9L41.6-5v-38.6h-72.3L-50-24.3z"/>
		<rect x="-26.7" y="-26.6" class="st2" width="11.7" height="4.5"/>
		<rect x="-5.1" y="-26.6" class="st2" width="36.8" height="4.5"/>
		<rect x="-26.7" y="30.9" class="st2" width="36.8" height="4.5"/>
		<rect x="20" y="30.9" class="st2" width="11.7" height="4.5"/>
		<rect x="70.3" y="2.2" class="st2" width="29.6" height="4.5"/>
		<rect x="109.8" y="2.2" class="st2" width="18.9" height="4.5"/>
	</g>
</g>
<g id="Layer_7" class="st0">
	<g class="st1">
		<path class="st2" d="M67.1,147.4c-22.4,0-43.9-9.6-58.9-26.2c-0.9-1-0.8-2.7,0.3-3.6c0.5-0.4,1.1-0.6,1.7-0.6
			c0.7,0,1.4,0.3,1.9,0.8c14,15.5,34.2,24.5,55.2,24.5c18.4,0,36.2-6.8,49.9-19.2c14.4-13,23.1-30.8,24.4-50.2
			c1.3-19.4-4.9-38.2-17.4-53c-0.9-1-0.8-2.6,0.1-3.5l9-9c2.3-2.5,2.1-6.4-0.4-8.6c-1.1-1-2.6-1.6-4.1-1.6s-3,0.6-4.1,1.6l-9.3,9.3
			c-0.5,0.5-1.1,0.8-1.8,0.8c-0.6,0-1.1-0.2-1.6-0.5C101.4,0.5,88.9-4.5,75.8-6c-1.3-0.1-2.3-1.2-2.3-2.6v-16.5
			c0-1.5,1.1-2.6,2.5-2.7h4.7c1.6,0,3.2-0.6,4.3-1.8c1.2-1.2,1.8-2.7,1.8-4.3c0-3.4-2.7-6.1-6.1-6.1H53.9c-1.6,0-3.2,0.6-4.3,1.8
			c-1.2,1.2-1.8,2.7-1.8,4.3c0,3.4,2.7,6.1,6.1,6.1h4.7c1.4,0,2.6,1.2,2.6,2.6v16.5c0,1.3-1,2.4-2.3,2.6c-17,1.9-32.9,9.7-44.8,22
			c-0.5,0.5-1.1,0.8-1.9,0.8c-0.7,0-1.3-0.3-1.8-0.7c-1-1-1-2.7,0-3.7C22.2,0.2,37.3-7.7,54-10.5l2.1-0.4v-11.5l-2.3-0.2
			c-6.2-0.6-10.8-6.1-10.2-12.3c0.5-5.6,4.9-9.9,10.5-10.2h26.6c3,0.2,5.7,1.5,7.7,3.8c2,2.3,3,5.2,2.8,8.2
			c-0.3,5.6-4.6,10.1-10.2,10.6l-2.3,0.2v11.3l2.1,0.4c11.1,1.9,21.5,6,30.8,12.3l1.7,1.1l7.6-7.6c2.1-2.1,5-3.3,8-3.3
			s5.8,1.2,8,3.3c4.4,4.4,4.4,11.6,0,16l-2.2,2.2h0.1l-5,5.1l1.3,1.7c12.8,17,18.1,37.9,15.1,59c-3,21-14,39.7-31,52.4
			c-12.3,9.2-26.9,14.7-42.3,15.7c-1.8,0.1-3.6,0.2-5.4,0.2L67.1,147.4L67.1,147.4z M67.3,125.9c-15.5,0-30-6.1-41-17
			c-0.5-0.5-0.8-1.1-0.8-1.8s0.3-1.3,0.8-1.8s1.1-0.8,1.8-0.8s1.3,0.3,1.8,0.8c10.1,10,23.3,15.5,37.5,15.5s27.5-5.5,37.5-15.5
			s15.5-23.3,15.5-37.4s-5.5-27.4-15.5-37.4S81.6,14.9,67.5,14.9C53.3,14.9,40,20.4,30,30.4c-0.5,0.5-1.1,0.8-1.8,0.8
			s-1.3-0.3-1.8-0.8s-0.8-1.1-0.8-1.8s0.3-1.3,0.8-1.8c11-11,25.6-17,41.1-17c32.1,0.1,58.1,26.1,58.1,58.2
			C125.4,99.8,99.3,125.9,67.3,125.9C67.4,125.9,67.3,125.9,67.3,125.9z M-42.2,93.7c-1.4,0-2.6-1.2-2.6-2.6s1.2-2.6,2.6-2.6H12
			c1.4,0,2.6,1.2,2.6,2.6s-1.2,2.6-2.6,2.6H-42.2z M-29.9,68.9c-1.4,0-2.6-1.2-2.6-2.6s1.2-2.6,2.6-2.6h54.2c1.4,0,2.6,1.2,2.6,2.6
			s-1.2,2.6-2.6,2.6H-29.9z M-42.2,44.2c-1.3,0-2.4-1-2.6-2.3v-0.3c0-1.4,1.2-2.6,2.6-2.6H12c1.4,0,2.6,1.2,2.6,2.6
			c0,1.4-1.2,2.6-2.6,2.6H-42.2z"/>
		<g>
			<path class="st2" d="M64.9,103.4v-9.1h-0.5c-4.9-0.1-10.1-1.5-13.3-3.7l1.8-5.1c3.7,2.3,8.3,3.6,12.8,3.6
				c6.6,0,11.3-3.9,11.3-9.4c0-4.9-3.2-8.2-10.6-11.2c-8.8-3.4-14.6-7.4-14.6-15.2c0-7.2,5.2-12.8,13.3-14.1l0.4-0.1v-9.1h4.6v8.8
				h0.5c4.3,0.1,8,1.1,11.2,2.9l-1.9,5c-1.9-1-5.6-2.9-11.2-2.9c-7,0-10.1,4.2-10.1,8.3c0,5.1,3.7,7.6,11.5,10.8
				c9.8,4,13.7,8.7,13.7,16.1c0,8.7-7,13.8-13.9,14.9L69.5,94v9.3L64.9,103.4L64.9,103.4z"/>
		</g>
	</g>
</g>
</svg>
