<?xml version="1.0" encoding="utf-8"?><svg version="1.1" xmlns="http://www.w3.org/2000/svg" viewBox="0 0 100 100" xml:space="preserve"><path d="M48.64,53.39v-4.8h-.26a13.52,13.52,0,0,1-6.94-1.93L42.38,44a12.89,12.89,0,0,0,6.68,1.88c3.45,0,5.9-2,5.9-4.91,0-2.56-1.67-4.28-5.53-5.84-4.6-1.78-7.62-3.87-7.62-7.94,0-3.76,2.71-6.68,6.94-7.36l.21,0V15h2.4v4.59h.26a12.36,12.36,0,0,1,5.84,1.52l-1,2.61a11.9,11.9,0,0,0-5.84-1.52c-3.66,0-5.28,2.2-5.28,4.34,0,2.66,1.94,4,6,5.63,5.11,2.09,7.15,4.54,7.15,8.41,0,4.54-3.66,7.2-7.26,7.77l-.21,0v4.86h-2.4Z" style="fill:#231f20"/><path d="M31.42,100a3.5,3.5,0,0,1-3.5-3.5V94.42a1.52,1.52,0,0,1,.63-1.2l5.53-3.71V79.33H10.75A9.76,9.76,0,0,1,1,69.62V9.71A9.76,9.76,0,0,1,10.75,0h78.5A9.76,9.76,0,0,1,99,9.71V49A1.47,1.47,0,0,1,96,49V9.71A6.86,6.86,0,0,0,89.2,2.87H10.75A6.86,6.86,0,0,0,3.91,9.71V57.88H27.24a1.46,1.46,0,1,1,0,2.92H3.91v8.88a6.86,6.86,0,0,0,6.84,6.83h78.5a6.86,6.86,0,0,0,6.84-6.83V60.8H50a26.23,26.23,0,1,1,19.57-8.71,1.43,1.43,0,0,1-1.09.47,1.26,1.26,0,0,1-.94-.37,1.46,1.46,0,0,1-.11-2A23.44,23.44,0,0,0,73.38,34.6,23.35,23.35,0,0,0,50.05,11.27,23.36,23.36,0,0,0,50,58H97.49A1.46,1.46,0,0,1,99,59.45V69.78a9.77,9.77,0,0,1-9.71,9.71H37v11a1.54,1.54,0,0,1-.62,1.2l-5.53,3.7v1.94H69.31V95.35l-5.53-3.7a1.39,1.39,0,0,1-.63-1.2V86.17a1.46,1.46,0,0,1,1.46-1.46,1.43,1.43,0,0,1,1.47,1.46v3.34l5.53,3.71a1.38,1.38,0,0,1,.62,1.2V96.5a3.5,3.5,0,0,1-3.49,3.5Z" style="fill:#231f20"/></svg>