<?xml version="1.0" encoding="utf-8"?>
<!-- Generator: Adobe Illustrator 24.0.0, SVG Export Plug-In . SVG Version: 6.00 Build 0)  -->
<svg version="1.1" id="Layer_1" xmlns="http://www.w3.org/2000/svg" xmlns:xlink="http://www.w3.org/1999/xlink" x="0px" y="0px"
	 viewBox="0 0 300 300" style="enable-background:new 0 0 300 300;" xml:space="preserve">
<style type="text/css">
	.st0{fill:none;stroke:#231F20;stroke-width:8;stroke-linecap:round;stroke-linejoin:round;stroke-miterlimit:10;}
</style>
<g id="dump_truck_1_">
	<g>
		<circle class="st0" cx="228.5" cy="248.5" r="26"/>
		<circle class="st0" cx="124.5" cy="248.5" r="26"/>
		<circle class="st0" cx="56.5" cy="248.5" r="26"/>
	</g>
	<g>
		<line class="st0" x1="150.4" y1="250.5" x2="202.6" y2="250.5"/>
		<path class="st0" d="M218.5,166.5v16c0,4.4,3.6,8,8,8h20"/>
		<path class="st0" d="M254.5,250.5h12c4.4,0,8-3.6,8-8v-52l-16.9-40.6c-1.9-4.5-6.2-7.4-11.1-7.4h-52v80h-32"/>
		<line class="st0" x1="94.5" y1="222.5" x2="124" y2="222.5"/>
	</g>
	<g>
		<polyline class="st0" points="198.5,26.5 174.5,42.5 174.5,142.5 58.5,222.5 26.5,222.5 26.5,150.5 154.5,62.5 		"/>
		<polyline class="st0" points="134.5,170.1 134.5,114.5 146.5,106.5 		"/>
		<polyline class="st0" points="98.5,194.9 98.5,138.5 110.5,130.5 		"/>
		<polyline class="st0" points="62.5,219.7 62.5,162.5 74.5,154.5 		"/>
	</g>
	<line class="st0" x1="158" y1="153.9" x2="178.5" y2="222.5"/>
</g>
</svg>
