<?xml version="1.0" encoding="utf-8"?><svg version="1.1" xmlns="http://www.w3.org/2000/svg" viewBox="0 0 100 100" xml:space="preserve"><path class="a" d="M99.52,62.67l-7.61-7.61a4.92,4.92,0,0,0-3.49-1.46,4.8,4.8,0,0,0-2.7.79l-.27.18-7-7L81,45.06a5.81,5.81,0,0,0-3.58-9.87l-.49,0,.14-.44a5.79,5.79,0,0,0-4.78-7.39l-.49,0,.18-.45a5.55,5.55,0,0,0,.4-2.12,5.77,5.77,0,0,0-5.31-5.79l-.44-.05.13-.44a5.89,5.89,0,0,0-1.46-5.71A5.79,5.79,0,0,0,61.17,11,5.54,5.54,0,0,0,58,12l-.36.22L57.05,11a4.4,4.4,0,0,0-3.93-2.39,2.56,2.56,0,0,0-.62,0L43,10l-.13-.13a5.59,5.59,0,0,0-7.66.22,5.66,5.66,0,0,0-1.63,3.63l0,.44-.44-.09A5.42,5.42,0,0,0,31.93,14,5.49,5.49,0,0,0,28,15.6a5.58,5.58,0,0,0-1.37,5.66l.13.44-.44.05A5.45,5.45,0,0,0,23,23.34a5.61,5.61,0,0,0-1.46,5.31l.09.44-.44,0a5.43,5.43,0,0,0-3.49,1.6,5.62,5.62,0,0,0,0,7.91L20.07,41a5.62,5.62,0,0,0,.75.62l.13.09.05.17a9.92,9.92,0,0,0,1.9,4.52l.18.26L14.23,55.5,14,55.32a4.85,4.85,0,0,0-2.7-.79A4.93,4.93,0,0,0,7.77,56L.16,63.59a1.09,1.09,0,0,0-.22,1.2,1.05,1.05,0,0,0,1,.66,1.28,1.28,0,0,0,.8-.31l7.6-7.61a2.8,2.8,0,0,1,3.9,0L34.18,78.46a2.76,2.76,0,0,1,0,3.89L26.57,90a1.08,1.08,0,0,0-.31.8,1.29,1.29,0,0,0,.31.79,1.08,1.08,0,0,0,.8.31,1.28,1.28,0,0,0,.8-.31l7.6-7.61a5,5,0,0,0,.67-6.19l-.18-.26L46,67.71l.26.22a9.26,9.26,0,0,0,5.84,2,9.43,9.43,0,0,0,4-.88h0l7.39,7.39-.18.26a4.85,4.85,0,0,0-.79,2.7A4.93,4.93,0,0,0,64,82.93l7.61,7.61a1.16,1.16,0,0,0,1.54,0,1.05,1.05,0,0,0,.31-.8,1.26,1.26,0,0,0-.31-.8l-7.6-7.61a2.76,2.76,0,0,1,0-3.89L86.47,56.52a2.76,2.76,0,0,1,3.89,0L98,64.13a1.17,1.17,0,0,0,1.55,0A1,1,0,0,0,99.52,62.67ZM24.45,24.8l.18.18A3.42,3.42,0,0,1,27,24a3.34,3.34,0,0,1,2.38,1l4.47,4.46a3.42,3.42,0,0,1,0,4.83,3.24,3.24,0,0,1-2.39,1,3.38,3.38,0,0,1-2.39-1L24.63,29.8a3.41,3.41,0,0,1,0-4.82l-.18-.18Zm.93,22.74a1,1,0,0,0,.31-.76,1.35,1.35,0,0,0-.31-.79,7.66,7.66,0,0,1-1.82-2.83l-.17-.53h.66A5.49,5.49,0,0,0,28,41a5.34,5.34,0,0,0,1.59-3.45l.05-.44.44.13a5,5,0,0,0,1.41.18A5.61,5.61,0,0,0,37,32.58l.05-.44.44.18A5.59,5.59,0,0,0,43.29,31a5.6,5.6,0,0,0,1.11-6.28,5.78,5.78,0,0,0-1.11-1.5l-3.4-3.5L36.7,16.53a3.36,3.36,0,0,1,2.22-5.75l.84,0-.62.75a2.92,2.92,0,0,0-.53,2.08l.26,1.59A7.83,7.83,0,0,0,40.64,19h0a9.35,9.35,0,0,0,.89.89h0a4.09,4.09,0,0,0,.84.75l.22.18,0-.14a9.27,9.27,0,0,0,2.79.93,7.69,7.69,0,0,0,1.46.09h.17a4.26,4.26,0,0,0,.8-.09L51.3,21h.09a1.11,1.11,0,0,0,.8-.35l6.45-6.37a3.69,3.69,0,0,1,2.57-1.06,3.55,3.55,0,0,1,2.57,1.06,3.59,3.59,0,0,1,0,5.09L62.54,20.6a1.05,1.05,0,0,0-.31.79,1.26,1.26,0,0,0,.31.8,1.15,1.15,0,0,0,1.55,0,3.63,3.63,0,0,1,2.52-1.06,3.51,3.51,0,0,1,2.56,1.06,3.62,3.62,0,0,1,1.07,2.56,3.54,3.54,0,0,1-1.07,2.57l-1.72,1.73a1.06,1.06,0,0,0,0,1.54,1.15,1.15,0,0,0,1.55,0,3.63,3.63,0,0,1,2.52-1.06,3.61,3.61,0,0,1,2.56,6.15L72.8,37a1.08,1.08,0,0,0,0,1.55,1.15,1.15,0,0,0,1.55,0,3.65,3.65,0,0,1,2.56-1.06,3.54,3.54,0,0,1,2.57,1.06,3.57,3.57,0,0,1,0,5.09L57.23,65.85a7.17,7.17,0,0,1-10.18,0l-.26-.26a1.15,1.15,0,0,0-1.55,0L34.76,76.07,15.87,57.18ZM32,16.22a3.34,3.34,0,0,1,2.39,1l7.43,7.43a3.41,3.41,0,0,1,0,4.82,3.28,3.28,0,0,1-2.39,1,3.43,3.43,0,0,1-2.39-1L29.58,22a3.43,3.43,0,0,1,0-4.78h0A3.36,3.36,0,0,1,32,16.22ZM51,18.78l-3.45.62a5.52,5.52,0,0,1-4.16-.93,5.4,5.4,0,0,1-2.26-3.62l-.26-1.6a.42.42,0,0,1,.13-.44.47.47,0,0,1,.4-.22L52.85,11a2.22,2.22,0,0,1,2.3,1.19L56,13.92ZM27.46,37.05a3.35,3.35,0,0,1-1,2.39,3.42,3.42,0,0,1-4.77,0L19.36,37.1a3.42,3.42,0,0,1-1-2.39,3.34,3.34,0,0,1,1-2.39,3.43,3.43,0,0,1,4.78,0l2.34,2.34A3.43,3.43,0,0,1,27.46,37.05ZM58,67.93c.27-.22.53-.44.75-.66L76.91,49.08l7,7L65,74.92Z"/></svg>