<?xml version="1.0" encoding="utf-8"?><svg version="1.1" xmlns="http://www.w3.org/2000/svg" viewBox="0 0 100 100" xml:space="preserve"><path class="a" d="M47.63,101.1a1,1,0,0,1-1-1V53.92H12.23a.91.91,0,0,1-.75-.33L1.34,43.45a1,1,0,0,1,0-1.5L11.48,31.81a1.08,1.08,0,0,1,.75-.33H46.59V26.83H12.23a.91.91,0,0,1-.75-.33l-10.14-10a1,1,0,0,1,0-1.51L11.48,4.81a1.08,1.08,0,0,1,.75-.33H46.59V2.18a1,1,0,0,1,1-1h6.76a1,1,0,0,1,1,1V18H89.79a1,1,0,0,1,.75.33l10.14,10.14a1.11,1.11,0,0,1,.33.76,1,1,0,0,1-.33.75L90.54,40.12a1.15,1.15,0,0,1-.75.33H55.42v59.67a1,1,0,0,1-1,1H47.63ZM48.71,99h4.64V3.26H48.71ZM3.59,42.7l8.87,8.87,34.13.19V33.64H12.65Zm51.83-4.46H89.08l9.34-9.06L89.55,20.3l-34.13-.18ZM3.59,15.7l8.87,8.88,34.13.19V6.64H12.65Z"/><rect class="a" x="14.53" y="14.62" width="5.49" height="2.11"/><rect class="a" x="24.67" y="14.62" width="17.28" height="2.11"/><rect class="a" x="14.53" y="41.62" width="17.28" height="2.11"/><rect class="a" x="36.45" y="41.62" width="5.49" height="2.11"/><rect class="a" x="60.07" y="28.15" width="13.9" height="2.11"/><rect class="a" x="78.61" y="28.15" width="8.87" height="2.11"/></svg>