<?xml version="1.0" encoding="utf-8"?><svg version="1.1" xmlns="http://www.w3.org/2000/svg" viewBox="0 0 100 100" xml:space="preserve"><path d="M35.59.23a1,1,0,0,0-.74.32,1.06,1.06,0,0,0-.33.74V4.93H30.89a1,1,0,0,0-.74.33,1,1,0,0,0-.33.73v4.09H25.37a1.08,1.08,0,0,0-1.07,1.06v88a1.08,1.08,0,0,0,1.07,1.07h41a1.08,1.08,0,0,0,1.06-1.07V95h4.54A1.11,1.11,0,0,0,73,93.93v-3.6h3.63a1,1,0,0,0,.74-.32,1.06,1.06,0,0,0,.33-.74v-88a1,1,0,0,0-.33-.74,1,1,0,0,0-.74-.32ZM26.43,98.14V12.25H65.27V98.14Zm41-5.23V11.18a1.08,1.08,0,0,0-1.06-1.06H32v-3H70.87V92.91ZM75.57,2.35V88.17H73V6a1.09,1.09,0,0,0-1.07-1.06H36.65V2.35Z" style="fill:#231f20"/><path d="M33.83,15.23a1.16,1.16,0,0,0-.29.82v.24a2.94,2.94,0,0,1-2.94,2.95,1,1,0,0,0-.74.33,1,1,0,0,0-.32.73V90.46a1.08,1.08,0,0,0,1.06,1.06,2.94,2.94,0,0,1,2.94,2.94,1.06,1.06,0,0,0,.33.74,1,1,0,0,0,.74.33H56.44a1,1,0,0,0,.73-.33,1,1,0,0,0,.33-.74,2.94,2.94,0,0,1,2.94-2.94,1.27,1.27,0,0,1,.41,0,1.13,1.13,0,0,0,.86-.24s0,0,0,0a1,1,0,0,0,.33-.73V20.26a1,1,0,0,0-.37-.82,1.09,1.09,0,0,0-.86-.24,1.39,1.39,0,0,1-.41,0,2.93,2.93,0,0,1-2.94-2.95v-.24a1,1,0,0,0-.29-.82,1.17,1.17,0,0,0-.77-.37H34.61a1,1,0,0,0-.78.37ZM60,21.32V89.39a5.16,5.16,0,0,0-4.49,4H35.59a4.93,4.93,0,0,0-1.39-2.53,5,5,0,0,0-2.54-1.39V21.24a4.85,4.85,0,0,0,2.54-1.39A5,5,0,0,0,35.63,17H55.46A5,5,0,0,0,60,21.32Z" style="fill:#231f20"/><path d="M35,55.17a7.34,7.34,0,0,0,3.32,5.93,13,13,0,0,0,7.56,2.33,12.2,12.2,0,0,0,8.63-3.23,7.06,7.06,0,0,0,2.2-5c0-4.54-4.86-8.26-10.83-8.26a12.2,12.2,0,0,0-8.63,3.23,6.81,6.81,0,0,0-2.25,5Zm19.55,0A4.89,4.89,0,0,1,53,58.69a10.18,10.18,0,0,1-7.15,2.62,11.08,11.08,0,0,1-6.3-1.88,5.35,5.35,0,0,1-2.41-4.21,4.91,4.91,0,0,1,1.59-3.52,10.23,10.23,0,0,1,7.16-2.62c4.82,0,8.71,2.74,8.71,6.09Z" style="fill:#231f20"/></svg>