<?xml version="1.0" encoding="utf-8"?><svg version="1.1" xmlns="http://www.w3.org/2000/svg" viewBox="0 0 100 100" xml:space="preserve"><path class="a" d="M31.21,99.75A8.23,8.23,0,0,1,23,91.53V8A8.23,8.23,0,0,1,31.21-.25H70.89a8.19,8.19,0,0,1,8.22,8.17V91.53a8.23,8.23,0,0,1-8.22,8.22Zm-5.53-8.22A5.51,5.51,0,0,0,31.16,97H70.83a5.51,5.51,0,0,0,5.48-5.48V85.42H25.68Zm0-8.85H76.31V15.61H25.68Zm5.53-80.3a5.51,5.51,0,0,0-5.48,5.48v5H76.37v-5a5.51,5.51,0,0,0-5.48-5.48Z"/><path class="a" d="M51.08,94.11A3.11,3.11,0,1,1,54.18,91,3.11,3.11,0,0,1,51.08,94.11Z"/><circle class="a" cx="50.87" cy="91" r="3.37"/><path class="a" d="M50.87,94.11A3.11,3.11,0,1,1,54,91,3.11,3.11,0,0,1,50.87,94.11Z"/><path class="a" d="M44.81,9a1.05,1.05,0,1,1,0-2.1H56.92a1.05,1.05,0,1,1,0,2.1Z"/><path class="a" d="M50.87,33.31A16.39,16.39,0,1,0,67.25,49.7,16.44,16.44,0,0,0,50.87,33.31Zm0,30A13.65,13.65,0,1,1,64.51,49.7,13.71,13.71,0,0,1,50.87,63.34Z"/><path class="a" d="M48.92,54.54a1,1,0,0,1-.74-.31L44,50a1,1,0,0,1,0-1.47,1.06,1.06,0,0,1,.74-.32,1.33,1.33,0,0,1,.74.32L49,52.12l7.06-7.06a1,1,0,0,1,1.48,0,1,1,0,0,1,.31.74.57.57,0,0,1-.37.58h0l-7.8,7.8A.91.91,0,0,1,48.92,54.54Z"/></svg>