<?xml version="1.0" encoding="utf-8"?><svg version="1.1" xmlns="http://www.w3.org/2000/svg" viewBox="0 0 100 100" xml:space="preserve"><path class="a" d="M58.41,100.1A41.34,41.34,0,0,1,27.83,86.49,1.3,1.3,0,0,1,28,84.63a1.4,1.4,0,0,1,.88-.32,1.44,1.44,0,0,1,1,.42A38.64,38.64,0,0,0,88.06,33.9a1.35,1.35,0,0,1,0-1.82l4.67-4.67a3.14,3.14,0,0,0-.2-4.47,3.15,3.15,0,0,0-4.26,0l-4.83,4.83a1.3,1.3,0,0,1-.93.42,1.63,1.63,0,0,1-.84-.26,38.91,38.91,0,0,0-18.79-7.48,1.31,1.31,0,0,1-1.2-1.35V10.53A1.39,1.39,0,0,1,63,9.13h2.44a3.06,3.06,0,0,0,2.24-.93,3.16,3.16,0,0,0-2.24-5.4H51.56a3,3,0,0,0-2.23.93A3.09,3.09,0,0,0,48.39,6a3.14,3.14,0,0,0,3.17,3.16H54a1.38,1.38,0,0,1,1.35,1.35v8.57a1.39,1.39,0,0,1-1.2,1.35A38.42,38.42,0,0,0,30.89,31.82a1.33,1.33,0,0,1-1,.42,1.49,1.49,0,0,1-.94-.37A1.38,1.38,0,0,1,29,30,41,41,0,0,1,51.61,18.11l1.09-.2v-6l-1.19-.11a5.87,5.87,0,0,1-5.3-6.38A5.76,5.76,0,0,1,51.66.15H65.47a5.71,5.71,0,0,1,4,2,5.83,5.83,0,0,1,1.45,4.26,5.79,5.79,0,0,1-5.29,5.5l-1.2.11v5.87l1.09.2a40.59,40.59,0,0,1,16,6.39l.88.57,3.95-3.95a5.88,5.88,0,0,1,4.15-1.71,6,6,0,0,1,4.15,1.71,5.88,5.88,0,0,1,0,8.31l-1.14,1.14h0L91,33.17l.67.88a41.3,41.3,0,0,1-30.22,66c-.93,0-1.87.1-2.8.1h-.21Zm.11-11.16a30.06,30.06,0,0,1-21.29-8.83,1.32,1.32,0,1,1,1.87-1.87,27.5,27.5,0,1,0,0-38.84,1.32,1.32,0,1,1-1.87-1.87A30.19,30.19,0,0,1,88.79,58.92a30.36,30.36,0,0,1-30.27,30ZM1.66,72.22a1.35,1.35,0,0,1,0-2.7H29.8a1.35,1.35,0,1,1,0,2.7ZM8.05,59.39a1.35,1.35,0,0,1,0-2.7H36.19a1.35,1.35,0,0,1,0,2.7ZM1.66,46.57a1.4,1.4,0,0,1-1.35-1.2v-.15a1.38,1.38,0,0,1,1.35-1.35H29.8a1.35,1.35,0,0,1,0,2.7Z"/><path class="a" d="M57.27,77.25V72.53H57a13.56,13.56,0,0,1-6.91-1.92L51,68a12.86,12.86,0,0,0,6.64,1.87c3.43,0,5.87-2,5.87-4.88,0-2.55-1.66-4.26-5.5-5.82-4.57-1.76-7.58-3.84-7.58-7.89,0-3.74,2.7-6.65,6.9-7.32l.21-.05V39.14H60v4.57h.26A12.12,12.12,0,0,1,66,45.22l-1,2.59a11.88,11.88,0,0,0-5.82-1.5c-3.63,0-5.24,2.18-5.24,4.31,0,2.65,1.92,3.94,6,5.6,5.09,2.08,7.11,4.52,7.11,8.36,0,4.52-3.63,7.17-7.21,7.74l-.21.05V77.2H57.27Z"/></svg>